<svg width="1243px" height="483px" viewBox="0 0 1243 483" fill="none" xmlns="http://www.w3.org/2000/svg">
    <g id="AlsaceTeam" stroke="none" stroke-width="1" fill="none" fill-rule="evenodd">
        <rect fill="#FFFFFF" x="0" y="0" width="1243" height="483"></rect>
        <g id="AlsaceLogo-Text" transform="translate(44, 106)">
            <g id="AlsaceLogo" fill="#A52B28" fill-rule="nonzero">
                <path d="M56.2316457,48.5823098 C59.485633,50.2116244 62.4750307,52.3376246 65.6872407,54.0226423 C67.6739833,55.2527516 70.1991888,54.0551358 72.329831,53.683782 C72.2787698,55.410577 72.2044991,57.13273 72.0745253,58.8502411 C64.1414807,60.5306169 56.0506107,63.2925604 49.1805662,67.6698928 C46.0611947,69.7216223 43.0950065,72.0843606 40.453753,74.7302561 C38.0028182,77.1486975 36.0671367,80.0266891 34.3171321,82.9743095 C29.4895333,91.213721 27.6141968,101.179927 28.5193716,110.640164 C29.805184,124.273489 35.2640842,136.426041 42.1851898,148.058697 C52.5784531,164.616433 66.6063412,178.857849 81.7482906,191.117165 C102.065983,207.50315 125.145619,220.268435 149.418229,229.765807 C164.369859,235.419668 179.762473,239.769149 195.568217,242.238652 C203.01386,243.547674 210.408441,243.863324 217.937639,244.267171 C226.622675,244.411071 235.409833,243.747276 243.946327,242.127245 C250.649263,240.711459 257.463604,238.734001 263.618793,235.693542 C268.678488,233.251891 273.75675,230.151087 277.655965,226.061554 C282.539266,221.558889 286.327075,215.970015 288.726948,209.786975 C290.611569,204.536962 291.372844,198.80883 291.679211,193.266375 C291.544595,189.404296 291.066477,185.481872 290.430534,181.670854 C288.230263,170.892311 283.63476,160.731144 277.91127,151.386955 C273.278632,143.987732 267.907928,137.043416 262.13802,130.50759 C258.559098,126.803337 255.179779,122.945899 251.317699,119.520161 C246.698987,114.957152 241.708921,110.839767 236.644584,106.792011 C230.851466,102.400753 225.23474,98.051272 219.102761,94.1474156 C216.679678,92.5273849 214.163756,91.269424 211.935634,89.370878 C212.864018,89.2130526 214.084843,88.6653058 215.01787,88.9623888 C217.403818,89.9279086 219.344141,91.9796381 221.734731,92.9033806 C222.983408,93.0936994 224.380626,92.5738041 225.615378,92.3649176 C224.919089,93.2097474 224.250653,94.068503 223.586858,94.9319004 C224.956225,95.2475511 226.274531,95.5585599 227.690317,95.4471538 C229.519234,95.3635992 231.39457,94.7880009 233.214204,94.9086908 C234.054392,95.1779223 234.820309,95.7952979 235.530523,96.3105513 C238.603475,98.6593638 241.741414,100.933906 244.842218,103.250225 C248.616101,106.207129 252.403909,109.13154 256.224211,112.028099 C254.38601,112.961125 252.47818,113.7224 250.561066,114.474392 C255.370097,119.000266 260.383373,123.396166 264.807125,128.307319 C265.368797,128.892201 265.976889,129.370319 266.7753,129.569922 C269.616156,130.321913 272.582344,130.632922 275.451052,131.259582 C276.755432,131.514887 277.391375,132.522184 278.217637,133.450569 C281.972952,138.059997 285.821105,142.571945 289.386101,147.329915 C290.862233,149.325942 292.542608,151.145575 294.055875,153.104466 C290.746184,153.030196 287.45042,152.853803 284.154655,152.570645 C285.895376,155.365082 287.510765,158.229148 289.061167,161.130349 C289.711036,162.276904 290.184512,163.344546 291.502818,163.83659 C294.993543,165.303437 298.470343,166.788852 301.970352,168.218564 C303.595024,168.789521 303.864256,170.284219 304.541977,171.681438 C306.370894,176.211954 308.362278,180.723902 309.875545,185.361182 C310.720375,187.937449 311.774091,190.416235 312.78603,192.927515 C308.069837,191.739183 303.441841,190.119152 298.841696,188.550182 C299.264111,192.003772 299.282679,195.57341 299.872203,198.985223 C300.874858,199.881114 302.104967,200.535625 303.209745,201.2969 C306.835086,203.729267 310.362947,206.29625 314.104336,208.561508 C313.296641,213.416958 313.02741,218.198138 311.871571,222.997885 C311.124222,226.070837 310.381514,229.125222 309.852335,232.244594 C304.128845,229.371244 298.799919,225.685558 293.155342,222.654383 C291.479608,226.24723 288.959045,229.041667 286.313149,231.933585 C284.628131,233.753218 282.729585,235.317546 280.78462,236.840096 C284.052533,240.149787 286.665935,243.802979 289.618197,247.372617 C291.094329,249.187609 292.663298,250.923688 294.11622,252.757247 C289.362892,255.384575 284.739537,258.285776 279.925864,260.820265 C276.917899,262.384593 273.733541,263.498654 270.753427,265.123327 C269.207667,265.963515 267.638697,266.692296 265.976889,267.295746 C263.377413,264.329558 260.587618,261.539763 258.029919,258.541081 C255.537206,255.625955 253.021285,252.743321 250.273267,250.064932 C244.326965,251.527137 238.329602,251.958836 232.248684,252.436954 C229.092177,252.69226 225.968164,252.687618 222.802373,252.747963 C224.315639,258.824239 225.5736,264.942292 227.170421,271 C221.929692,270.452253 216.675036,270.05769 211.438948,269.458882 C205.353388,268.897209 199.29568,268.437659 193.289033,267.212192 C191.364421,266.82834 189.410968,266.579077 187.453237,266.354799 L185.103478,266.090642 C182.754809,265.824449 180.414127,265.531102 178.123874,265.021205 C177.506499,264.204226 177.209416,263.094807 176.912333,262.129287 C175.682223,257.631265 174.424262,253.142526 173.300917,248.61201 C173.045612,247.688268 172.850651,246.648477 172.344681,245.822215 C170.938179,245.088792 169.216026,244.884547 167.707401,244.406429 C156.357902,241.087455 145.296202,236.979354 134.448031,232.295655 C133.273624,234.198843 132.062083,236.069537 130.715925,237.852035 C128.617777,240.64183 126.904907,243.608019 125.024929,246.546355 C121.469217,244.805634 118.089898,242.735337 114.552753,240.952839 C113.157524,240.255225 111.80322,239.486371 110.456061,238.704308 L108.436459,237.528562 C108.099345,237.333372 107.761621,237.139169 107.422761,236.946861 C102.386276,234.342742 97.3544322,231.650428 92.5732526,228.591401 C87.1004266,225.007837 81.3537273,221.934885 75.6720148,218.699465 C77.3059713,215.42691 79.2045174,212.279687 81.130915,209.174242 C82.3703082,207.322115 83.6004175,205.497839 84.4452473,203.4229 C78.0347531,199.361219 72.2369925,194.120489 66.4113805,189.274322 C63.6215854,186.749117 60.8039388,184.237837 58.1580433,181.559448 C54.2402611,182.687435 50.2389244,183.462636 46.2932908,184.507068 C43.6334695,185.166221 41.0293513,186.020335 38.3463204,186.600575 C35.3197873,182.130404 31.6201755,178.212622 28.4543847,173.839932 C24.6572926,169.499735 21.3940214,164.792826 18.1586018,160.030214 C16.2879073,157.212567 14.0829944,154.668794 12.1101775,151.925418 C18.0843311,149.822628 24.1281135,147.928723 30.2740181,146.406173 C26.5001356,138.760927 22.8005238,131.603084 20.88341,123.159428 C13.9530205,122.388869 7.11546951,120.903454 0.208289652,119.988995 C0.0551062279,111.197195 -0.279112152,102.173299 0.468237281,93.413992 C6.86944765,93.4975466 13.3634965,94.6208917 19.7507811,95.1639965 C20.4285017,92.3695595 21.2918991,89.6308256 22.2295674,86.9153012 C16.6731868,84.8171525 11.3396185,82.2176762 5.7600283,80.1613048 C8.79584526,76.7773437 11.4185312,73.0081031 14.5100512,69.6752031 C16.5246453,67.7023863 18.4649687,65.6924341 20.2010475,63.4643115 C23.979572,64.272006 27.6791838,65.757421 31.3370182,67.0246657 C32.9431232,67.5584867 34.6374248,68.3801069 36.3317263,68.5100807 C38.9776218,66.945753 41.3310762,64.921875 44.0280329,63.4039666 C42.2282331,62.3236647 40.526259,61.1062152 38.8384095,59.8667069 L36.8144129,58.3760746 C35.4624592,57.3850818 34.0981178,56.4094342 32.6785337,55.5080573 C38.2627658,53.6559305 43.7541595,51.3674629 49.3987366,49.7845676 C51.0605446,49.3250173 52.6620077,48.6658644 54.3330996,48.2527333 C55.0386717,48.0392049 55.6049862,48.2852268 56.2316457,48.5823098 Z M100.557358,0.0881511691 C100.506297,2.63656632 100.60842,5.12463648 100.937996,7.65448395 C102.056699,7.66376779 103.17076,7.67769356 104.284822,7.69161932 C104.628324,14.3295677 104.851136,20.9582323 105.496363,27.572971 C105.751669,32.8461944 106.424748,38.040505 106.299416,43.3322961 C106.183368,48.034563 106.958569,52.5836465 107.390267,57.2441361 C107.654857,61.4357917 108.077272,65.5856699 108.128333,69.7912512 C108.211888,77.0187236 108.564674,84.2740476 109.451281,91.4458171 C110.565342,91.6129263 111.684045,91.7707516 112.798107,91.923935 C112.73312,94.5002017 112.73312,97.0764684 112.737762,99.657377 C111.762958,99.6388093 110.792796,99.6202416 109.817993,99.6109578 C109.831918,101.514146 109.975818,103.366273 110.263617,105.250893 C112.867735,105.158055 116.330609,105.547976 118.633002,104.178609 C120.211256,103.329137 119.881679,101.467727 120.118417,99.95446 C120.884335,93.3211535 120.819348,86.6553536 121.534204,80.0220471 C122.425453,71.9868802 122.286195,63.8867264 123.103173,55.8654853 C123.293492,53.1685287 123.274924,50.4622882 123.595217,47.7699734 C129.444039,47.9417245 135.302144,47.8442442 141.155608,47.8163927 C141.573381,52.3979696 142.042215,56.835647 142.070066,61.4357917 C142.093276,65.3025126 142.543542,69.1738755 142.70601,73.0405965 C142.784922,76.3177934 143.341953,79.5207196 143.597259,82.7932745 C144.423521,92.8523194 145.67684,102.855661 146.855888,112.877571 C148.387722,112.868287 149.975259,112.951841 151.488526,112.696536 C152.528317,112.436588 153.493836,111.689239 154.399011,111.132208 C154.737871,108.342413 154.775007,105.552618 154.802858,102.744255 C155.044238,96.7051146 155.345963,90.675258 155.466653,84.6314756 C155.838007,80.9040123 155.587343,77.1672651 156.000474,73.4444437 C156.446099,68.7189672 155.963339,64.0445518 156.367186,59.3562106 C156.664269,55.8979788 156.538937,52.5000919 156.61785,49.0186504 C159.263745,48.8194049 161.904697,48.8337426 164.544811,48.8772884 L167.184799,48.9237414 C169.384811,48.9591844 171.585191,48.9722312 173.788319,48.8561832 C174.56352,59.2215949 175.403708,69.5730808 176.47135,79.9152829 C176.726656,83.6148947 176.889123,87.3145065 177.302254,91.0048345 C177.559881,93.2799565 177.750272,95.5589951 177.924589,97.8387681 L178.266949,102.39835 C178.442571,104.677688 178.636226,106.955639 178.899075,109.22902 C179.237935,112.44123 179.400403,115.667366 179.729979,118.879576 C179.898717,118.878273 180.076302,118.87733 180.262733,118.876747 L181.161388,118.876554 C182.652187,118.880034 184.576471,118.901157 186.934242,118.939921 L186.948168,121.107698 C135.463064,121.129361 103.859312,121.158759 92.1369119,121.195895 C91.5396513,121.168043 90.7488425,121.527019 89.7644855,122.272821 L179.980643,122.272821 L181.795634,142.785474 L180.487924,142.785965 L180.164851,142.786085 L177.94652,142.786886 C177.738848,142.786959 177.532205,142.787032 177.326589,142.787103 L174.908547,142.787919 L174.613231,142.788015 L171.466525,142.788986 L171.189713,142.789066 L167.731481,142.789993 L167.476258,142.790055 L162.91999,142.790987 L162.695607,142.791023 L153.009917,142.791057 C152.915327,142.791035 152.821765,142.791011 152.729231,142.790987 L150.480614,142.790116 C150.406584,142.790076 150.333582,142.790035 150.261608,142.789993 L149.077102,142.789146 C149.017464,142.789093 148.958854,142.78904 148.901273,142.788986 L148.114647,142.78811 C148.067345,142.788047 148.021071,142.787984 147.975826,142.787919 L147.482222,142.787103 L147.427461,142.786995 L147.087309,142.786203 C147.058511,142.786125 147.030742,142.786046 147.004,142.785965 L146.855888,142.785474 C143.597259,142.773423 142.70601,142.613285 140.668206,143.746174 C139.30967,144.501433 135.665287,148.363571 129.735056,155.332589 L131.919386,156.571982 C135.390742,152.722281 138.06873,149.785492 139.95335,147.761614 C140.89566,146.823946 141.684787,145.436011 143.179486,145.436011 C145.491163,145.259618 147.835333,145.366382 150.156294,145.324605 C148.86584,146.946183 145.703144,150.282178 140.668206,155.332589 L143.225905,156.571982 C147.60169,151.902209 150.504439,148.785932 151.934151,147.223151 C152.792906,146.355112 153.452059,145.510282 154.793574,145.542775 C157.491222,145.505443 160.816045,145.48479 164.768042,145.480819 L167.69756,145.480819 C171.948212,145.48479 176.826039,145.505443 182.33104,145.542775 C182.416633,168.955659 182.598687,181.069043 182.877202,181.882927 C183.610626,182.096455 184.775748,182.213959 185.52774,182.357858 C185.727899,180.517429 185.833074,169.824847 185.843264,150.280113 L185.843992,148.152161 C185.844114,147.431553 185.844114,146.699654 185.843994,145.956464 L185.843268,143.69302 C185.842421,141.906218 185.840915,140.057942 185.838748,138.148194 C187.497462,138.194613 188.65949,138.055355 189.324832,137.730421 C191.079478,136.486386 192.369933,134.536779 193.929618,133.04208 C197.039706,129.964485 200.126584,126.868323 203.167043,123.7211 C203.928318,122.945899 204.712803,122.217118 205.62262,121.61831 C205.98469,127.341799 205.385882,133.120992 205.799013,138.858408 C208.082838,136.914023 210.251776,134.839084 212.399336,132.740563 L214.543233,130.638144 C217.401497,127.835004 220.277167,125.053332 223.391897,122.546694 C224.162456,127.694586 223.475452,133.028154 223.735399,138.231748 C226.566972,135.339831 229.120029,132.178682 231.993378,129.337826 C233.910492,127.527476 235.5723,125.327205 237.707584,123.795371 C238.241405,124.774817 238.157851,125.800681 238.190344,126.886891 C238.190344,130.739686 238.232121,134.58784 238.222838,138.440635 C242.196323,138.4035 246.169808,138.463844 250.138651,138.440635 C250.324328,146.044103 250.092232,153.642929 250.412525,161.237114 C250.468228,163.636987 250.380031,166.022935 250.59356,168.418167 C250.933746,171.814064 250.932467,175.256002 250.907894,178.694651 L250.891553,180.986055 C250.885148,182.130973 250.884011,183.274306 250.899926,184.41423 C252.134678,184.349243 253.374071,184.284256 254.613464,184.233195 C255.216914,187.032274 255.541848,190.648331 257.445036,192.885737 C257.482172,189.757082 256.465591,187.041558 255.987473,183.963963 C257.946364,183.950038 259.895971,184.005741 261.845578,184.209985 C264.291871,184.483859 266.742806,183.922186 269.258728,183.815422 C269.421195,187.72392 269.704352,191.618493 270.010719,195.517707 C270.753427,195.638397 271.491492,195.763729 272.2342,195.898345 C270.720933,199.672227 268.980212,203.292926 266.422513,206.486569 C264.807125,208.617211 262.769321,210.279019 261.288548,212.521067 C262.514015,211.731941 263.63736,210.83605 264.62609,209.768408 C267.434452,206.751158 270.08499,203.613219 271.886056,199.876472 C273.255423,197.012406 274.378768,194.064786 275.08434,190.968624 C275.980231,187.259728 275.868825,183.142343 275.817763,179.340609 C275.780628,175.548159 274.968292,171.908892 273.99813,168.260341 C272.146003,161.645603 269.351566,155.392934 265.953679,149.432706 C259.62674,138.491696 251.443031,128.845782 242.368074,120.100401 C233.506645,111.796003 223.935002,104.276089 213.764551,97.6427829 C211.267197,95.9624071 208.718782,94.4166471 206.096096,92.9497998 C207.558301,92.1188957 208.978729,91.032686 210.561625,90.4478038 C212.339481,91.2276467 213.90845,92.5366687 215.588826,93.5161143 C226.214186,100.256185 236.482117,107.734321 245.858799,116.1362 C250.384673,120.29072 254.933757,124.370969 258.995438,128.994324 C265.772644,136.309993 271.937117,144.126989 277.140711,152.644916 C282.102926,160.935389 286.280656,169.866446 288.555197,179.289548 C289.79459,185.147654 290.625495,190.968624 290.17987,196.970629 C289.590346,203.241865 288.091005,209.587373 284.679192,214.958076 C281.675869,219.878514 277.990183,224.320833 273.478235,227.927606 C268.822387,231.771118 263.572373,234.324175 258.011351,236.580149 C250.551782,239.462782 243.078288,240.558276 235.214872,241.653769 C224.371343,242.735337 213.866673,241.918359 203.074205,240.832149 C195.809597,239.829494 188.215412,239.049651 181.178259,237.053625 C178.578782,236.445533 176.039651,235.642481 173.472668,234.909057 C164.694794,232.940882 156.009758,229.770449 147.686792,226.381846 C137.367799,222.69616 127.373741,217.891771 117.723186,212.716028 C107.088543,207.442805 97.8093406,200.874485 88.1030818,194.074069 C81.8968321,189.241829 75.602386,184.256405 70.0274377,178.718592 C60.4186593,169.968569 51.6964879,160.243742 44.6779019,149.274881 C41.5353208,144.874339 39.140089,139.810002 36.70308,134.982403 C31.6619528,124.422031 28.7143323,112.162715 29.8701709,100.43722 C30.8403326,92.2256599 34.0200491,84.1579996 39.3164821,77.770715 C42.6725916,74.0525355 46.2422296,70.6685744 50.6288459,68.1897881 C57.0996851,64.1234645 64.5917471,61.8628485 71.9909707,60.1406954 C71.5453462,63.4039666 71.3503855,66.6950892 70.8861933,69.9490765 C67.3397649,71.2580985 64.2250353,73.2773346 61.1938602,75.5008152 C57.0393401,78.601619 53.5161213,82.5658204 50.9305708,87.0592008 C47.411994,93.0890574 45.9358628,99.9823115 46.0147755,106.926627 C46.21902,112.469082 47.2031075,117.932624 48.8927671,123.215131 C49.9186318,127.578538 51.9378679,131.440617 53.8967589,135.432669 C54.959759,137.55867 56.2223618,139.559338 57.5267419,141.541439 C60.7992969,146.554714 64.2528868,151.424091 68.2588654,155.884978 C72.4041017,160.805415 76.9903206,165.015638 81.5347622,169.527586 C85.6567889,173.528923 90.113034,177.015006 94.5553533,180.635705 C100.418101,185.314763 106.64756,189.348593 113.002351,193.312794 C121.687387,199.124481 131.444707,203.673564 140.867809,208.115883 C147.686792,211.035652 154.821426,213.356613 161.770383,215.997867 C163.385772,216.619884 165.019728,217.158347 166.727956,217.450788 C165.818139,216.847339 164.875829,216.290308 163.868532,215.863251 C157.58337,213.245207 151.23322,210.798914 144.906281,208.273709 C140.185446,206.398372 135.664214,203.891734 131.115131,201.626476 C125.716575,198.957371 120.522265,196.046886 115.638963,192.509742 C111.256988,189.659602 106.88894,186.818745 102.822616,183.522981 C101.875664,182.755993 100.912397,182.003589 99.9442232,181.255388 L98.0047154,179.761513 C95.418998,177.768948 92.8524821,175.757045 90.5215231,173.528923 C88.5022871,171.676796 86.4041383,169.926791 84.4452473,168.01432 C80.9730897,164.602507 77.1759975,161.733799 74.1308967,157.89493 C69.7396385,153.23444 65.8822014,148.132968 62.2336507,142.878312 C59.9962444,139.206552 57.7031349,135.50694 55.8510081,131.626293 C54.1752742,127.847769 54.6766018,124.357044 54.4769992,120.383558 C54.0963616,115.639514 54.1334969,110.793348 54.723021,106.077155 C56.4126806,105.283386 58.7754189,105.733653 60.6182619,105.594395 C60.6553973,103.630862 60.6925327,101.671971 60.7621615,99.7084381 C62.7024849,99.5691805 64.6381663,99.4995516 66.5831316,99.5459709 C66.6063412,101.207779 66.5924155,102.864945 66.6109831,104.526753 C67.1680138,104.37357 67.7157606,104.197177 68.2542235,103.98829 C69.3450752,102.331124 69.4332717,100.010163 69.6839355,98.0837655 C70.3523722,90.6102711 70.5751845,83.0949995 70.9743898,75.6075794 C71.1786343,74.734898 69.9578089,74.3310508 69.4379136,73.7925879 C69.6050228,73.5187145 69.7674901,73.249483 69.9345993,72.9756096 C71.4432239,72.9663258 72.9472066,72.9895354 74.4558312,73.0359546 C75.0407134,66.76936 75.0453553,60.4841977 75.6859406,54.2268869 C76.1037135,48.1413272 76.7025215,42.0604094 77.4870063,36.0166271 C78.4710937,29.7546743 78.4061068,23.5484247 78.990989,17.226127 C79.1348886,14.0649782 79.4783908,10.9316808 79.7661899,7.77981584 C80.7966966,7.73803854 81.8272033,7.70090317 82.8623519,7.65912587 C84.6995406,7.58497924 83.8786976,5.82602567 82.9664498,4.01714032 L82.7705045,3.62935356 C81.858294,1.8216763 81.0380093,0.0808440416 82.8762777,0.0417319496 C88.7668766,-0.083599943 94.6667594,0.116002701 100.557358,0.0881511691 Z M227.179705,144.140915 C225.508613,144.173408 223.805028,144.117705 222.14322,144.331234 C221.75794,146.768243 222.02253,149.358435 222.059665,151.823296 C223.795744,151.827938 225.536465,151.83258 227.272544,151.851147 C227.272544,149.279523 227.253976,146.71254 227.179705,144.140915 Z M236.737423,144.094496 C235.070973,144.113064 233.404523,144.131631 231.738073,144.150199 C231.687012,146.642911 231.68237,149.135623 231.751998,151.632977 C233.520571,151.619051 235.289143,151.521571 237.057715,151.419449 C236.978803,148.977798 236.858113,146.536147 236.737423,144.094496 Z M169.861253,124.677336 L159.291597,124.677336 L162.239217,133.385582 L169.666292,133.385582 L169.861253,124.677336 Z M99.1044368,124.700546 L87.3093131,124.700546 L91.2178114,133.385582 L99.5732709,133.385582 L99.1044368,124.700546 Z M128.083956,124.677336 L117.514299,124.677336 L120.46192,133.385582 L127.888995,133.385582 L128.083956,124.677336 Z M142.009721,124.677336 L131.440065,124.677336 L134.387686,133.385582 L141.814761,133.385582 L142.009721,124.677336 Z M155.935487,124.677336 L145.365831,124.677336 L148.313451,133.385582 L155.740527,133.385582 L155.935487,124.677336 Z M114.15819,124.677336 L103.588533,124.677336 L106.536154,133.385582 L113.963229,133.385582 L114.15819,124.677336 Z M159.658309,78.7130252 C159.231252,78.9358374 158.808837,79.1632916 158.395706,79.4046715 C158.024352,82.34765 158.103265,85.3927508 158.080055,88.358939 C158.01971,96.0413198 158.04292,103.723701 157.973291,111.406081 C158.474619,111.396798 158.980588,111.382872 159.486558,111.368946 C159.426213,107.409387 159.46799,103.454469 159.681518,99.4995516 C159.936824,94.541979 159.672234,89.5983321 160.001811,84.6500433 C160.122501,82.6354492 160.215339,80.6765581 159.658309,78.7130252 Z M164.727287,94.3191667 C164.058851,94.4305729 163.399698,94.5605467 162.745187,94.723014 C162.592003,100.228333 162.796248,105.868269 162.972641,111.341095 C163.576091,111.341095 164.179541,111.345736 164.778349,111.345736 C164.824768,105.673308 164.880471,99.9915954 164.727287,94.3191667 Z M152.273011,89.3987295 C151.632426,95.4610795 152.291578,100.622897 151.024334,106.416015 C150.235207,107.246919 149.116504,107.808592 148.160268,108.425968 C146.841962,103.148102 147.064774,97.7866824 146.099255,92.4159787 C148.06743,91.2322887 150.151652,90.2899785 152.273011,89.3987295 Z M285.54259,50.1280698 C283.138074,51.2421311 280.529314,52.2076508 278.157292,53.4284763 C274.09561,55.6008958 269.936448,57.5829964 265.832989,59.6718613 C262.142661,61.3966669 258.475354,63.1666601 254.813892,64.9485898 L247.493676,68.518512 C245.05281,69.7072229 242.609454,70.8913867 240.158519,72.061151 C231.761282,76.5266799 223.22943,80.7322612 214.943599,85.383467 C211.78245,87.3377161 208.542389,89.1527076 205.385882,91.1255244 C202.113327,93.1261928 198.761859,94.4537825 195.674981,96.7376081 C192.741286,98.9378791 189.529076,100.432578 186.395779,102.307914 C184.469381,103.463753 182.496565,104.452482 180.426267,105.325164 C180.152394,103.148102 179.678918,100.790006 179.934224,98.6036607 C181.609958,97.0207653 184.019115,96.1295163 185.982648,94.9272585 C189.700827,92.6712845 193.581474,90.7680965 197.438911,88.7674281 C197.383208,88.2568167 197.327505,87.7462053 197.26716,87.2355939 C201.403113,84.905349 205.571559,82.7979165 209.944249,80.9411477 C210.106716,81.2567984 210.273826,81.5678072 210.436293,81.8788159 C211.930992,81.3496368 213.481394,80.8436673 214.920389,80.1937983 C221.247329,77.055859 227.815649,74.3403347 234.105453,71.1049151 C238.051087,68.9232118 242.265952,67.0850107 246.41583,65.3071546 C253.267307,62.1599315 260.239473,59.2633722 267.220924,56.422516 C273.139375,54.0180004 279.308489,51.5113625 285.54259,50.1280698 Z M127.573344,66.3747966 C126.812069,66.4769189 126.027584,66.5558316 125.280235,66.7368665 C124.440047,68.2687008 124.602514,70.3807753 124.412195,72.0982864 C123.859807,82.3058727 123.265641,92.4902495 122.49044,102.679268 C123.488453,102.688552 124.486466,102.693194 125.484479,102.697836 C125.939388,92.7919744 126.965252,82.9418161 127.438728,73.0405965 C127.605838,70.8217578 127.666183,68.5982772 127.573344,66.3747966 Z M72.3205471,98.6175865 C71.8145776,98.8682503 71.317892,99.1328398 70.8490579,99.4484905 C70.7933548,100.19584 70.784071,100.943189 70.7979967,101.695181 C71.2482632,101.676613 71.6985296,101.658045 72.153438,101.639478 C72.2137829,100.632181 72.269486,99.6248835 72.3205471,98.6175865 Z M72.5758528,94.5976821 C72.4568821,94.7063374 72.3234444,94.8150947 72.1848371,94.925765 L71.9742114,95.0934317 C71.2315866,95.6868718 70.4746095,96.358002 71.0486605,97.3689095 C71.0579444,98.1951716 72.2648441,97.4710318 72.5526432,97.1553811 C72.6408398,96.2966255 72.5990625,95.4610795 72.5758528,94.5976821 Z M72.6129882,92.1421054 C72.1859314,92.1792407 71.7588746,92.2395857 71.3318178,92.3277822 C71.2853985,92.996219 71.2436212,93.6600138 71.2111278,94.3284506 C71.8934903,94.0174418 72.5804948,93.7157169 73.2303638,93.3350793 C73.0586127,92.9126644 72.8497262,92.5134591 72.6129882,92.1421054 Z M316.694528,33.0782905 C316.295323,34.178426 315.988956,35.7009764 315.106991,36.5225966 C313.732982,37.4184875 311.913349,37.7294963 310.376872,38.2865269 C304.894763,40.2732695 299.384801,42.1532479 293.865556,44.0425101 C287.589678,46.1638684 281.703721,48.7958382 275.562458,51.2839084 C263.289216,56.1440006 250.872075,61.0040929 238.951619,66.6625958 C233.604125,69.1924432 227.982758,71.0120766 222.644548,73.546566 C220.518547,74.5260116 218.369337,75.4358283 216.271189,76.4709769 C212.149162,78.5227064 207.734694,79.8270864 203.603384,81.8834578 C200.887859,83.243541 198.158409,84.5664887 195.345405,85.7223273 C189.858653,88.1361267 184.548294,90.8841445 179.349342,93.8549746 C178.541647,89.6818867 178.281699,85.4623797 178.096023,81.2243049 C182.255185,79.9152829 186.019783,77.7567892 190.146452,76.3642126 C194.992619,74.7441819 199.639182,72.5114174 204.383227,70.6035875 C210.524489,68.1897881 216.735381,65.9477398 222.895211,63.5896434 C228.335544,61.5750493 233.669112,59.3144333 239.192999,57.5690707 C243.732799,55.9815334 248.17976,54.1990353 252.645289,52.435105 C256.358827,50.9636157 260.18377,49.8541964 263.934443,48.4941133 C267.086308,47.3661262 270.103558,45.9224885 273.269348,44.8316368 C278.765384,42.9052392 284.089668,40.6028459 289.678542,38.9271121 C294.413303,37.4974002 299.032015,35.7473956 303.813195,34.4708671 C305.962405,33.876701 308.041986,33.045797 310.195837,32.4980502 C312.270777,31.91781 314.633515,32.6605175 316.694528,33.0782905 Z M72.9425647,88.0989913 C72.4922983,88.2707424 72.0652414,88.4842709 71.6706781,88.7395766 C71.4292981,89.3801618 71.3225339,90.0764501 71.1739924,90.7402449 C71.8424292,90.7541707 72.5155079,90.7634545 73.1885865,90.7773803 C73.1143158,89.8814894 73.044687,88.9902404 72.9425647,88.0989913 Z M73.5274468,84.431873 C72.9379228,84.6639691 72.3391148,84.8914233 71.7588746,85.1560128 C71.6660361,85.8151657 71.6103331,86.4836025 71.5407043,87.1473973 C72.093093,87.1613231 72.6454817,87.1752489 73.1978704,87.1891746 C73.3185604,86.2700741 73.4253246,85.3509735 73.5274468,84.431873 Z M73.8709491,81.1918115 C73.2025123,81.3125014 72.5294336,81.4239076 71.8702807,81.5956587 C71.7681584,82.2269601 71.7217392,82.8675453 71.6660361,83.5081305 C72.2741279,83.5220563 72.8868616,83.5359821 73.4949534,83.5499078 C73.6249272,82.765423 73.7502591,81.9809382 73.8709491,81.1918115 Z M74.2423028,77.4875578 C73.5877918,77.6268154 72.9379228,77.7939246 72.2973375,77.9888853 C72.0002545,78.782654 71.9213419,79.673903 71.7681584,80.504807 C72.4412371,80.3052044 73.1653769,80.1705886 73.8013202,79.8688637 C74.0148487,79.0983047 74.1169709,78.2766845 74.2423028,77.4875578 Z M177.158354,72.6088978 C180.365922,73.4630114 183.452801,74.9623522 186.293657,76.6612957 C184.353333,77.5246931 182.394442,78.5969771 180.324145,79.0890208 C179.553586,79.3257589 178.62056,78.6666059 177.914988,78.3741649 C177.715385,76.4477672 177.330105,74.5399373 177.158354,72.6088978 Z M74.2840801,74.382112 C73.7316914,74.4888762 73.0632547,74.5074439 72.5712109,74.7906011 C72.3391148,75.3754833 72.1998572,75.9975008 72.0281061,76.6009507 C72.8868616,76.4895445 73.7456172,76.3734965 74.6090147,76.2435227 C74.5115343,75.6215051 74.4047701,74.9994876 74.2840801,74.382112 Z M187.53305,69.085679 C190.332129,70.5061071 193.196195,71.7779938 196.050977,73.0823738 C193.117282,74.2521382 190.086107,75.2176579 187.064216,76.1089069 C184.525085,74.4053216 181.781709,73.2030638 178.940852,72.1029283 C177.854643,71.7408584 177.288328,70.9981509 176.643101,70.097618 C178.272416,70.1811726 179.600005,70.5850198 181.062211,71.2627404 C182.278394,70.2368757 183.392456,68.9928406 184.743255,68.1526527 C185.653072,68.0598143 186.706788,68.7421768 187.53305,69.085679 Z M143.541556,61.4079401 C146.540237,62.2713376 149.984543,62.5220014 152.760413,63.9377876 C153.122483,65.7620629 152.913596,67.7348797 152.92288,69.5870066 C149.975259,68.848941 146.841962,68.3336877 144.024315,67.182491 C143.597259,65.3164384 143.615826,63.3111281 143.541556,61.4079401 Z M108.987089,56.0093849 C112.528875,56.0743718 116.052094,56.4271579 119.59388,56.5107125 C119.59388,58.7852542 119.584596,61.0551541 119.570671,63.3296958 C116.228487,63.1161674 112.918797,62.8098006 109.567329,62.9676259 C109.265604,60.6559488 109.098495,58.3349878 108.987089,56.0093849 Z M143.170202,53.3124282 C146.438115,54.0458519 149.608548,55.1227778 152.862535,55.9211884 C152.904312,58.2282236 152.92288,60.5399007 152.950731,62.8515779 C149.863853,61.9278354 146.772333,61.0551541 143.597259,60.4749138 C143.341953,58.0889659 143.179486,55.7123019 143.170202,53.3124282 Z M108.708573,48.8840347 C110.333246,50.0259475 111.521578,51.9384193 113.276225,52.8203845 C115.286177,53.4888213 117.542151,53.5259567 119.631016,53.864817 C119.635658,54.3847122 119.640299,54.9046075 119.644941,55.4198608 C116.075303,55.0763586 112.496382,54.8396206 108.908176,54.7003629 C108.819979,52.792533 108.462551,50.7779389 108.708573,48.8840347 Z M322.923987,16.808354 C324.613647,19.2175115 326.061927,21.8030621 327.668032,24.2725645 C330.662071,23.9151365 333.591124,23.3348963 336.594448,23.1028002 C334.621631,25.2937874 332.467779,27.2573203 330.39284,29.3693948 C331.827194,32.4794825 333.721098,35.3435484 335.122958,38.4629199 C331.562604,37.3674263 328.02546,36.1187493 324.557944,34.7586662 C322.283402,37.149256 319.948515,39.4795008 317.669332,41.8608068 C316.792009,42.7891912 315.793995,43.5597502 314.758847,44.3024577 C314.679934,39.8369288 317.172646,36.2255135 317.381533,31.8388973 C314.095052,30.3488404 310.386156,29.0908795 307.5453,26.8209797 C311.077803,25.9854337 314.652083,25.9158049 318.212437,25.3727 C318.876232,25.1916651 319.493607,25.2937874 319.818542,24.5789314 C321.197192,22.2394027 321.754223,19.3010661 322.923987,16.808354 Z"></path>
            </g>
            <text id="阿尔萨斯工业" font-family="Arial, Helvetica, sans-serif" font-size="100"
                  font-weight="bold" letter-spacing="1.5" fill="#75140C">
                <tspan x="384" y="116">阿尔萨斯工业</tspan>
            </text>
            <text id="Usine-d'-Alsace" font-family="Arial, Helvetica, sans-serif" font-size="100"
                  font-weight="bold" letter-spacing="1.5" fill="#E0626B">
                <tspan x="382" y="251">Usine d' Alsace</tspan>
            </text>
        </g>
    </g>
</svg>
